<?xml version="1.0" encoding="UTF-8" standalone="no"?>
<!DOCTYPE svg PUBLIC "-//W3C//DTD SVG 1.1//EN"
 "http://www.w3.org/Graphics/SVG/1.1/DTD/svg11.dtd">
<!-- Generated by graphviz version 2.47.0 (20210316.0004)
 -->
<!-- Title: dependencies Pages: 1 -->
<svg width="1240pt" height="284pt"
 viewBox="0.00 0.00 1240.00 284.00" xmlns="http://www.w3.org/2000/svg" xmlns:xlink="http://www.w3.org/1999/xlink">
<g id="graph0" class="graph" transform="scale(1 1) rotate(0) translate(4 280)">
<title>dependencies</title>
<polygon fill="white" stroke="transparent" points="-4,4 -4,-280 1236,-280 1236,4 -4,4"/>
<text text-anchor="start" x="595.01" y="-42.4" font-family="Times-12" font-weight="bold" font-size="14.00">Legend</text>
<polygon fill="#ffffb3" stroke="transparent" points="382,-10 382,-30 402,-30 402,-10 382,-10"/>
<text text-anchor="start" x="405.63" y="-15.4" font-family="Times-12" font-size="14.00"> &#160;Declarations</text>
<polygon fill="#8dd3c7" stroke="transparent" points="495,-10 495,-30 515,-30 515,-10 495,-10"/>
<text text-anchor="start" x="518.73" y="-15.4" font-family="Times-12" font-size="14.00"> &#160;Module</text>
<polygon fill="#80b1d3" stroke="transparent" points="581,-10 581,-30 601,-30 601,-10 581,-10"/>
<text text-anchor="start" x="604.78" y="-15.4" font-family="Times-12" font-size="14.00"> &#160;Bootstrap</text>
<polygon fill="#fdb462" stroke="transparent" points="678,-10 678,-30 698,-30 698,-10 678,-10"/>
<text text-anchor="start" x="701.67" y="-15.4" font-family="Times-12" font-size="14.00"> &#160;Providers</text>
<polygon fill="#fb8072" stroke="transparent" points="774,-10 774,-30 794,-30 794,-10 774,-10"/>
<text text-anchor="start" x="797.73" y="-15.4" font-family="Times-12" font-size="14.00"> &#160;Exports</text>
<g id="clust1" class="cluster">
<title>cluster_AppModule</title>
<polygon fill="none" stroke="black" stroke-dasharray="1,5" points="8,-70 8,-268 1224,-268 1224,-70 8,-70"/>
</g>
<g id="clust2" class="cluster">
<title>cluster_AppModule_declarations</title>
<polygon fill="none" stroke="black" points="168,-78 168,-130 1216,-130 1216,-78 168,-78"/>
</g>
<g id="clust10" class="cluster">
<title>cluster_AppModule_imports</title>
<polygon fill="none" stroke="black" points="16,-78 16,-130 160,-130 160,-78 16,-78"/>
</g>
<g id="clust12" class="cluster">
<title>cluster_AppModule_bootstrap</title>
<polygon fill="none" stroke="black" points="594,-208 594,-260 718,-260 718,-208 594,-208"/>
</g>
<!-- AppComponent -->
<g id="node1" class="node">
<title>AppComponent</title>
<polygon fill="#ffffb3" stroke="black" points="1207.94,-122 1102.06,-122 1102.06,-86 1207.94,-86 1207.94,-122"/>
<text text-anchor="middle" x="1155" y="-99.8" font-family="Times,serif" font-size="14.00">AppComponent</text>
</g>
<!-- AppModule -->
<g id="node8" class="node">
<title>AppModule</title>
<polygon fill="#8dd3c7" stroke="black" points="697.66,-187 694.66,-191 673.66,-191 670.66,-187 614.34,-187 614.34,-151 697.66,-151 697.66,-187"/>
<text text-anchor="middle" x="656" y="-164.8" font-family="Times,serif" font-size="14.00">AppModule</text>
</g>
<!-- AppComponent&#45;&gt;AppModule -->
<g id="edge1" class="edge">
<title>AppComponent&#45;&gt;AppModule</title>
<path fill="none" stroke="black" d="M1155,-122.29C1155,-144.21 1155,-178 1155,-178 1155,-178 707.69,-178 707.69,-178"/>
<polygon fill="black" stroke="black" points="707.69,-174.5 697.69,-178 707.69,-181.5 707.69,-174.5"/>
</g>
<!-- EntornoComponent -->
<g id="node2" class="node">
<title>EntornoComponent</title>
<polygon fill="#ffffb3" stroke="black" points="1084.44,-122 957.56,-122 957.56,-86 1084.44,-86 1084.44,-122"/>
<text text-anchor="middle" x="1021" y="-99.8" font-family="Times,serif" font-size="14.00">EntornoComponent</text>
</g>
<!-- EntornoComponent&#45;&gt;AppModule -->
<g id="edge2" class="edge">
<title>EntornoComponent&#45;&gt;AppModule</title>
<path fill="none" stroke="black" d="M1021,-122.11C1021,-141.34 1021,-169 1021,-169 1021,-169 707.87,-169 707.87,-169"/>
<polygon fill="black" stroke="black" points="707.87,-165.5 697.87,-169 707.87,-172.5 707.87,-165.5"/>
</g>
<!-- HistorialComponent -->
<g id="node3" class="node">
<title>HistorialComponent</title>
<polygon fill="#ffffb3" stroke="black" points="940.32,-122 809.68,-122 809.68,-86 940.32,-86 940.32,-122"/>
<text text-anchor="middle" x="875" y="-99.8" font-family="Times,serif" font-size="14.00">HistorialComponent</text>
</g>
<!-- HistorialComponent&#45;&gt;AppModule -->
<g id="edge3" class="edge">
<title>HistorialComponent&#45;&gt;AppModule</title>
<path fill="none" stroke="black" d="M875,-122.03C875,-138.4 875,-160 875,-160 875,-160 707.71,-160 707.71,-160"/>
<polygon fill="black" stroke="black" points="707.71,-156.5 697.71,-160 707.71,-163.5 707.71,-156.5"/>
</g>
<!-- LoginComponent -->
<g id="node4" class="node">
<title>LoginComponent</title>
<polygon fill="#ffffb3" stroke="black" points="791.28,-122 676.72,-122 676.72,-86 791.28,-86 791.28,-122"/>
<text text-anchor="middle" x="734" y="-99.8" font-family="Times,serif" font-size="14.00">LoginComponent</text>
</g>
<!-- LoginComponent&#45;&gt;AppModule -->
<g id="edge4" class="edge">
<title>LoginComponent&#45;&gt;AppModule</title>
<path fill="none" stroke="black" d="M687.22,-122.11C687.22,-122.11 687.22,-140.99 687.22,-140.99"/>
<polygon fill="black" stroke="black" points="683.72,-140.99 687.22,-150.99 690.72,-140.99 683.72,-140.99"/>
</g>
<!-- OrdenTrabajoComponent -->
<g id="node5" class="node">
<title>OrdenTrabajoComponent</title>
<polygon fill="#ffffb3" stroke="black" points="658.85,-122 499.15,-122 499.15,-86 658.85,-86 658.85,-122"/>
<text text-anchor="middle" x="579" y="-99.8" font-family="Times,serif" font-size="14.00">OrdenTrabajoComponent</text>
</g>
<!-- OrdenTrabajoComponent&#45;&gt;AppModule -->
<g id="edge5" class="edge">
<title>OrdenTrabajoComponent&#45;&gt;AppModule</title>
<path fill="none" stroke="black" d="M636.55,-122.11C636.55,-122.11 636.55,-140.99 636.55,-140.99"/>
<polygon fill="black" stroke="black" points="633.05,-140.99 636.55,-150.99 640.05,-140.99 633.05,-140.99"/>
</g>
<!-- OrdenVisualComponent -->
<g id="node6" class="node">
<title>OrdenVisualComponent</title>
<polygon fill="#ffffb3" stroke="black" points="481.36,-122 328.64,-122 328.64,-86 481.36,-86 481.36,-122"/>
<text text-anchor="middle" x="405" y="-99.8" font-family="Times,serif" font-size="14.00">OrdenVisualComponent</text>
</g>
<!-- OrdenVisualComponent&#45;&gt;AppModule -->
<g id="edge6" class="edge">
<title>OrdenVisualComponent&#45;&gt;AppModule</title>
<path fill="none" stroke="black" d="M405,-122.03C405,-138.4 405,-160 405,-160 405,-160 604.27,-160 604.27,-160"/>
<polygon fill="black" stroke="black" points="604.27,-163.5 614.27,-160 604.27,-156.5 604.27,-163.5"/>
</g>
<!-- ProtectedComponent -->
<g id="node7" class="node">
<title>ProtectedComponent</title>
<polygon fill="#ffffb3" stroke="black" points="310.2,-122 175.8,-122 175.8,-86 310.2,-86 310.2,-122"/>
<text text-anchor="middle" x="243" y="-99.8" font-family="Times,serif" font-size="14.00">ProtectedComponent</text>
</g>
<!-- ProtectedComponent&#45;&gt;AppModule -->
<g id="edge7" class="edge">
<title>ProtectedComponent&#45;&gt;AppModule</title>
<path fill="none" stroke="black" d="M243,-122.11C243,-141.34 243,-169 243,-169 243,-169 604.13,-169 604.13,-169"/>
<polygon fill="black" stroke="black" points="604.13,-172.5 614.13,-169 604.13,-165.5 604.13,-172.5"/>
</g>
<!-- AppComponent  -->
<g id="node10" class="node">
<title>AppComponent </title>
<polygon fill="#80b1d3" stroke="black" points="710.44,-252 601.56,-252 601.56,-216 710.44,-216 710.44,-252"/>
<text text-anchor="middle" x="656" y="-229.8" font-family="Times,serif" font-size="14.00">AppComponent </text>
</g>
<!-- AppModule&#45;&gt;AppComponent  -->
<g id="edge9" class="edge">
<title>AppModule&#45;&gt;AppComponent </title>
<path fill="none" stroke="black" stroke-dasharray="1,5" d="M656,-187.11C656,-187.11 656,-205.99 656,-205.99"/>
<polygon fill="black" stroke="black" points="652.5,-205.99 656,-215.99 659.5,-205.99 652.5,-205.99"/>
</g>
<!-- AppRoutingModule -->
<g id="node9" class="node">
<title>AppRoutingModule</title>
<polygon fill="#8dd3c7" stroke="black" points="152.27,-122 149.27,-126 128.27,-126 125.27,-122 23.73,-122 23.73,-86 152.27,-86 152.27,-122"/>
<text text-anchor="middle" x="88" y="-99.8" font-family="Times,serif" font-size="14.00">AppRoutingModule</text>
</g>
<!-- AppRoutingModule&#45;&gt;AppModule -->
<g id="edge8" class="edge">
<title>AppRoutingModule&#45;&gt;AppModule</title>
<path fill="none" stroke="black" d="M88,-122.29C88,-144.21 88,-178 88,-178 88,-178 604.23,-178 604.23,-178"/>
<polygon fill="black" stroke="black" points="604.23,-181.5 614.23,-178 604.23,-174.5 604.23,-181.5"/>
</g>
</g>
</svg>
