<?xml version="1.0" encoding="UTF-8" standalone="no"?>
<!DOCTYPE svg PUBLIC "-//W3C//DTD SVG 1.1//EN"
 "http://www.w3.org/Graphics/SVG/1.1/DTD/svg11.dtd">
<!-- Generated by graphviz version 2.47.0 (20210316.0004)
 -->
<!-- Title: dependencies Pages: 1 -->
<svg width="1240pt" height="284pt"
 viewBox="0.00 0.00 1240.00 284.00" xmlns="http://www.w3.org/2000/svg" xmlns:xlink="http://www.w3.org/1999/xlink">
<g id="graph0" class="graph" transform="scale(1 1) rotate(0) translate(4 280)">
<title>dependencies</title>
<polygon fill="white" stroke="transparent" points="-4,4 -4,-280 1236,-280 1236,4 -4,4"/>
<text text-anchor="start" x="595.01" y="-42.4" font-family="Times-12" font-weight="bold" font-size="14.00">Legend</text>
<polygon fill="#ffffb3" stroke="transparent" points="382,-10 382,-30 402,-30 402,-10 382,-10"/>
<text text-anchor="start" x="405.63" y="-15.4" font-family="Times-12" font-size="14.00"> &#160;Declarations</text>
<polygon fill="#8dd3c7" stroke="transparent" points="495,-10 495,-30 515,-30 515,-10 495,-10"/>
<text text-anchor="start" x="518.73" y="-15.4" font-family="Times-12" font-size="14.00"> &#160;Module</text>
<polygon fill="#80b1d3" stroke="transparent" points="581,-10 581,-30 601,-30 601,-10 581,-10"/>
<text text-anchor="start" x="604.78" y="-15.4" font-family="Times-12" font-size="14.00"> &#160;Bootstrap</text>
<polygon fill="#fdb462" stroke="transparent" points="678,-10 678,-30 698,-30 698,-10 678,-10"/>
<text text-anchor="start" x="701.67" y="-15.4" font-family="Times-12" font-size="14.00"> &#160;Providers</text>
<polygon fill="#fb8072" stroke="transparent" points="774,-10 774,-30 794,-30 794,-10 774,-10"/>
<text text-anchor="start" x="797.73" y="-15.4" font-family="Times-12" font-size="14.00"> &#160;Exports</text>
<g id="clust1" class="cluster">
<title>cluster_AppModule</title>
<polygon fill="none" stroke="black" stroke-dasharray="1,5" points="8,-70 8,-268 1224,-268 1224,-70 8,-70"/>
</g>
<g id="clust10" class="cluster">
<title>cluster_AppModule_imports</title>
<polygon fill="none" stroke="black" points="1072,-78 1072,-130 1216,-130 1216,-78 1072,-78"/>
</g>
<g id="clust12" class="cluster">
<title>cluster_AppModule_bootstrap</title>
<polygon fill="none" stroke="black" points="590,-208 590,-260 714,-260 714,-208 590,-208"/>
</g>
<g id="clust2" class="cluster">
<title>cluster_AppModule_declarations</title>
<polygon fill="none" stroke="black" points="16,-78 16,-130 1064,-130 1064,-78 16,-78"/>
</g>
<!-- AppComponent -->
<g id="node1" class="node">
<title>AppComponent</title>
<polygon fill="#ffffb3" stroke="black" points="1055.94,-122 950.06,-122 950.06,-86 1055.94,-86 1055.94,-122"/>
<text text-anchor="middle" x="1003" y="-99.8" font-family="Times,serif" font-size="14.00">AppComponent</text>
</g>
<!-- AppModule -->
<g id="node8" class="node">
<title>AppModule</title>
<polygon fill="#8dd3c7" stroke="black" points="693.66,-187 690.66,-191 669.66,-191 666.66,-187 610.34,-187 610.34,-151 693.66,-151 693.66,-187"/>
<text text-anchor="middle" x="652" y="-164.8" font-family="Times,serif" font-size="14.00">AppModule</text>
</g>
<!-- AppComponent&#45;&gt;AppModule -->
<g id="edge1" class="edge">
<title>AppComponent&#45;&gt;AppModule</title>
<path fill="none" stroke="black" d="M1003,-122.11C1003,-141.34 1003,-169 1003,-169 1003,-169 703.99,-169 703.99,-169"/>
<polygon fill="black" stroke="black" points="703.99,-165.5 693.99,-169 703.99,-172.5 703.99,-165.5"/>
</g>
<!-- EntornoComponent -->
<g id="node2" class="node">
<title>EntornoComponent</title>
<polygon fill="#ffffb3" stroke="black" points="932.44,-122 805.56,-122 805.56,-86 932.44,-86 932.44,-122"/>
<text text-anchor="middle" x="869" y="-99.8" font-family="Times,serif" font-size="14.00">EntornoComponent</text>
</g>
<!-- EntornoComponent&#45;&gt;AppModule -->
<g id="edge2" class="edge">
<title>EntornoComponent&#45;&gt;AppModule</title>
<path fill="none" stroke="black" d="M869,-122.03C869,-138.4 869,-160 869,-160 869,-160 703.84,-160 703.84,-160"/>
<polygon fill="black" stroke="black" points="703.84,-156.5 693.84,-160 703.84,-163.5 703.84,-156.5"/>
</g>
<!-- HistorialComponent -->
<g id="node3" class="node">
<title>HistorialComponent</title>
<polygon fill="#ffffb3" stroke="black" points="788.32,-122 657.68,-122 657.68,-86 788.32,-86 788.32,-122"/>
<text text-anchor="middle" x="723" y="-99.8" font-family="Times,serif" font-size="14.00">HistorialComponent</text>
</g>
<!-- HistorialComponent&#45;&gt;AppModule -->
<g id="edge3" class="edge">
<title>HistorialComponent&#45;&gt;AppModule</title>
<path fill="none" stroke="black" d="M675.83,-122.11C675.83,-122.11 675.83,-140.99 675.83,-140.99"/>
<polygon fill="black" stroke="black" points="672.33,-140.99 675.83,-150.99 679.33,-140.99 672.33,-140.99"/>
</g>
<!-- LoginComponent -->
<g id="node4" class="node">
<title>LoginComponent</title>
<polygon fill="#ffffb3" stroke="black" points="639.28,-122 524.72,-122 524.72,-86 639.28,-86 639.28,-122"/>
<text text-anchor="middle" x="582" y="-99.8" font-family="Times,serif" font-size="14.00">LoginComponent</text>
</g>
<!-- LoginComponent&#45;&gt;AppModule -->
<g id="edge4" class="edge">
<title>LoginComponent&#45;&gt;AppModule</title>
<path fill="none" stroke="black" d="M624.78,-122.11C624.78,-122.11 624.78,-140.99 624.78,-140.99"/>
<polygon fill="black" stroke="black" points="621.28,-140.99 624.78,-150.99 628.28,-140.99 621.28,-140.99"/>
</g>
<!-- OrdenTrabajoComponent -->
<g id="node5" class="node">
<title>OrdenTrabajoComponent</title>
<polygon fill="#ffffb3" stroke="black" points="506.85,-122 347.15,-122 347.15,-86 506.85,-86 506.85,-122"/>
<text text-anchor="middle" x="427" y="-99.8" font-family="Times,serif" font-size="14.00">OrdenTrabajoComponent</text>
</g>
<!-- OrdenTrabajoComponent&#45;&gt;AppModule -->
<g id="edge5" class="edge">
<title>OrdenTrabajoComponent&#45;&gt;AppModule</title>
<path fill="none" stroke="black" d="M427,-122.03C427,-138.4 427,-160 427,-160 427,-160 600.21,-160 600.21,-160"/>
<polygon fill="black" stroke="black" points="600.21,-163.5 610.21,-160 600.21,-156.5 600.21,-163.5"/>
</g>
<!-- OrdenVisualComponent -->
<g id="node6" class="node">
<title>OrdenVisualComponent</title>
<polygon fill="#ffffb3" stroke="black" points="329.36,-122 176.64,-122 176.64,-86 329.36,-86 329.36,-122"/>
<text text-anchor="middle" x="253" y="-99.8" font-family="Times,serif" font-size="14.00">OrdenVisualComponent</text>
</g>
<!-- OrdenVisualComponent&#45;&gt;AppModule -->
<g id="edge6" class="edge">
<title>OrdenVisualComponent&#45;&gt;AppModule</title>
<path fill="none" stroke="black" d="M253,-122.11C253,-141.34 253,-169 253,-169 253,-169 600.05,-169 600.05,-169"/>
<polygon fill="black" stroke="black" points="600.05,-172.5 610.05,-169 600.05,-165.5 600.05,-172.5"/>
</g>
<!-- ProtectedComponent -->
<g id="node7" class="node">
<title>ProtectedComponent</title>
<polygon fill="#ffffb3" stroke="black" points="158.2,-122 23.8,-122 23.8,-86 158.2,-86 158.2,-122"/>
<text text-anchor="middle" x="91" y="-99.8" font-family="Times,serif" font-size="14.00">ProtectedComponent</text>
</g>
<!-- ProtectedComponent&#45;&gt;AppModule -->
<g id="edge7" class="edge">
<title>ProtectedComponent&#45;&gt;AppModule</title>
<path fill="none" stroke="black" d="M91,-122.29C91,-144.21 91,-178 91,-178 91,-178 600.29,-178 600.29,-178"/>
<polygon fill="black" stroke="black" points="600.29,-181.5 610.29,-178 600.29,-174.5 600.29,-181.5"/>
</g>
<!-- AppComponent  -->
<g id="node10" class="node">
<title>AppComponent </title>
<polygon fill="#80b1d3" stroke="black" points="706.44,-252 597.56,-252 597.56,-216 706.44,-216 706.44,-252"/>
<text text-anchor="middle" x="652" y="-229.8" font-family="Times,serif" font-size="14.00">AppComponent </text>
</g>
<!-- AppModule&#45;&gt;AppComponent  -->
<g id="edge9" class="edge">
<title>AppModule&#45;&gt;AppComponent </title>
<path fill="none" stroke="black" stroke-dasharray="1,5" d="M652,-187.11C652,-187.11 652,-205.99 652,-205.99"/>
<polygon fill="black" stroke="black" points="648.5,-205.99 652,-215.99 655.5,-205.99 648.5,-205.99"/>
</g>
<!-- AppRoutingModule -->
<g id="node9" class="node">
<title>AppRoutingModule</title>
<polygon fill="#8dd3c7" stroke="black" points="1208.27,-122 1205.27,-126 1184.27,-126 1181.27,-122 1079.73,-122 1079.73,-86 1208.27,-86 1208.27,-122"/>
<text text-anchor="middle" x="1144" y="-99.8" font-family="Times,serif" font-size="14.00">AppRoutingModule</text>
</g>
<!-- AppRoutingModule&#45;&gt;AppModule -->
<g id="edge8" class="edge">
<title>AppRoutingModule&#45;&gt;AppModule</title>
<path fill="none" stroke="black" d="M1144,-122.29C1144,-144.21 1144,-178 1144,-178 1144,-178 703.95,-178 703.95,-178"/>
<polygon fill="black" stroke="black" points="703.95,-174.5 693.95,-178 703.95,-181.5 703.95,-174.5"/>
</g>
</g>
</svg>
